<?xml version="1.0" encoding="UTF-8"?><svg id="Layer_1" xmlns="http://www.w3.org/2000/svg" width="24" height="24" xmlns:xlink="http://www.w3.org/1999/xlink" viewBox="0 0 24 24"><defs><clipPath id="clippath"><rect x="1" y="1" width="22" height="22" fill="none"/></clipPath><clipPath id="clippath-1"><rect x="1" y="1" width="22" height="22" fill="none"/></clipPath></defs><g id="Favicon_Fronius_RGB"><g clip-path="url(#clippath)"><g clip-path="url(#clippath-1)"><path d="M12,1.33C6.11,1.33,1.33,6.11,1.33,12s4.78,10.67,10.67,10.67,10.67-4.78,10.67-10.67S17.89,1.33,12,1.33" fill="#d73237"/><path d="M18.19,10.22h-6.3c-.79,.02-1.49,.47-1.83,1.18l-1.79,3.87h-1.04l2.79-6.04c.13-.3,.44-.47,.74-.49h8.11l.74-1.6H10.18c-.77,0-1.49,.46-1.83,1.18l-3.95,8.55h5.24l2.19-4.73c.1-.19,.29-.32,.49-.32h5.14l.74-1.6Z" fill="#fff"/></g></g></g></svg>